# xmcd CD database file
#
# Track frame offsets:
#	150
#	20010
#	43317
#	74422
#
# Disc length: 1083 seconds
#
# Revision: 0
# Processed by: cddbd v1.5PL3 Copyright (c) Steve Scherf et al.
# Submitted via: CDex 1.51
#
DISCID=37043904
DTITLE=move - over drive
DYEAR=1998
DGENRE=JPop
TTITLE0=over drive
TTITLE1=ROCK IT DOWN [EBOMAN Remix]
TTITLE2=over drive [tv mix]
TTITLE3=CD-EXTRA
EXTD=YEAR: 1998
EXTT0=
EXTT1=
EXTT2=
EXTT3=
PLAYORDER=
